<?xml version="1.0" encoding="UTF-8" standalone="no"?>
<!DOCTYPE svg PUBLIC "-//W3C//DTD SVG 1.1//EN" "http://www.w3.org/Graphics/SVG/1.1/DTD/svg11.dtd">
<svg version="1.1" xmlns="http://www.w3.org/2000/svg" xmlns:xlink="http://www.w3.org/1999/xlink" preserveAspectRatio="xMidYMid meet" viewBox="0 0 90.38 86.89" width="90.38" height="86.89"><defs><path d="M61.79 22.84L62.66 23.53L63.49 24.26L64.3 25.02L65.09 25.81L65.84 26.64L66.56 27.49L67.26 28.38L67.92 29.29L68.55 30.23L69.15 31.2L69.71 32.2L70.24 33.22L70.73 34.26L71.18 35.32L71.6 36.41L71.98 37.52L72.32 38.65L72.62 39.79L72.88 40.96L73.1 42.14L73.27 43.34L73.4 44.55L73.49 45.78L73.53 47.01L73.53 48.27L73.5 49.04L73.45 49.8L73.39 50.56L73.32 51.32L73.22 52.06L73.11 52.81L72.98 53.54L72.84 54.27L72.68 54.99L72.5 55.71L72.31 56.41L72.1 57.12L71.88 57.81L71.64 58.49L71.39 59.17L71.13 59.84L70.85 60.5L70.55 61.15L70.25 61.79L69.93 62.43L69.59 63.05L69.24 63.67L68.88 64.27L68.51 64.86L68.12 65.45L67.73 66.02L67.32 66.59L66.9 67.14L66.46 67.68L66.02 68.21L65.56 68.73L65.1 69.24L64.62 69.74L64.13 70.22L63.63 70.69L63.12 71.15L62.61 71.6L62.08 72.03L61.54 72.45L60.99 72.86L60.77 82.65L60.76 82.83L60.75 83L60.73 83.18L60.7 83.35L60.67 83.52L60.63 83.69L60.59 83.85L60.54 84.01L60.48 84.17L60.42 84.33L60.35 84.48L60.28 84.63L60.2 84.77L60.12 84.92L60.03 85.05L59.94 85.19L59.85 85.32L59.75 85.45L59.64 85.57L59.53 85.68L59.42 85.8L59.3 85.91L59.18 86.01L59.06 86.11L58.93 86.2L58.8 86.29L58.67 86.37L58.53 86.45L58.39 86.52L58.24 86.58L58.1 86.64L57.95 86.7L57.8 86.74L57.65 86.78L57.49 86.82L57.33 86.85L57.17 86.87L57.01 86.88L56.85 86.89L56.68 86.89L32.76 86.34L32.6 86.33L32.43 86.32L32.27 86.3L32.11 86.27L31.96 86.24L31.8 86.19L31.65 86.15L31.5 86.09L31.36 86.03L31.22 85.97L31.08 85.89L30.94 85.82L30.8 85.73L30.67 85.65L30.55 85.55L30.42 85.45L30.3 85.35L30.19 85.24L30.08 85.13L29.97 85.01L29.87 84.89L29.77 84.76L29.67 84.63L29.58 84.5L29.5 84.36L29.42 84.21L29.34 84.07L29.27 83.92L29.21 83.77L29.15 83.61L29.09 83.45L29.04 83.29L29 83.13L28.96 82.96L28.93 82.79L28.91 82.62L28.89 82.45L28.88 82.27L28.87 82.1L28.87 81.92L29.09 72.13L28.57 71.7L28.05 71.25L27.54 70.8L27.05 70.33L26.56 69.84L26.08 69.35L25.62 68.85L25.16 68.33L24.72 67.8L24.29 67.26L23.87 66.71L23.46 66.15L23.07 65.58L22.68 65L22.31 64.4L21.95 63.8L21.61 63.19L21.27 62.57L20.96 61.94L20.65 61.3L20.36 60.65L20.08 60L19.82 59.33L19.57 58.66L19.33 57.98L19.11 57.29L18.91 56.6L18.72 55.9L18.54 55.19L18.38 54.47L18.24 53.75L18.11 53.02L18 52.28L17.91 51.54L17.83 50.8L17.77 50.05L17.73 49.29L17.7 48.53L17.69 47.76L17.7 46.99L17.75 45.74L17.85 44.51L17.99 43.28L18.18 42.08L18.41 40.89L18.68 39.72L18.99 38.57L19.34 37.44L19.73 36.33L20.16 35.24L20.63 34.17L21.13 33.13L21.67 32.11L22.25 31.11L22.85 30.14L23.49 29.2L24.17 28.29L24.87 27.41L25.6 26.56L26.37 25.73L27.16 24.94L27.97 24.19L28.82 23.47L29.69 22.78L30.58 22.13L31.5 21.51L32.44 20.93L33.4 20.4L34.38 19.9L35.39 19.44L36.41 19.02L37.45 18.65L38.5 18.32L39.58 18.03L40.67 17.79L41.77 17.6L42.89 17.45L44.01 17.35L45.15 17.3L46.31 17.3L47.46 17.36L48.59 17.46L49.72 17.61L50.82 17.8L51.92 18.05L52.99 18.34L54.05 18.67L55.09 19.05L56.11 19.47L57.12 19.93L58.1 20.44L59.06 20.98L59.99 21.56L60.9 22.18L60.9 22.18L61.79 22.84Z" id="c2NFkZpnn8"></path></defs><g><g><g><g><use xlink:href="#c2NFkZpnn8" opacity="1" fill="#adb8bc" fill-opacity="1"></use><g><use xlink:href="#c2NFkZpnn8" opacity="1" fill-opacity="0" stroke="#000000" stroke-width="1" stroke-opacity="0"></use></g></g></g></g></g></svg>