<?xml version="1.0" encoding="UTF-8" standalone="no"?>
<!DOCTYPE svg PUBLIC "-//W3C//DTD SVG 1.1//EN" "http://www.w3.org/Graphics/SVG/1.1/DTD/svg11.dtd">
<svg version="1.1" xmlns="http://www.w3.org/2000/svg" xmlns:xlink="http://www.w3.org/1999/xlink" preserveAspectRatio="xMidYMid meet" viewBox="0 0 90.38 86.89" width="90.38" height="86.89"><defs><path d="M61.79 22.84L62.66 23.53L63.49 24.26L64.3 25.02L65.09 25.81L65.84 26.64L66.56 27.49L67.26 28.38L67.92 29.29L68.55 30.23L69.15 31.2L69.71 32.2L70.24 33.22L70.73 34.26L71.18 35.32L71.6 36.41L71.98 37.52L72.32 38.65L72.62 39.79L72.88 40.96L73.1 42.14L73.27 43.34L73.4 44.55L73.49 45.78L73.53 47.01L73.53 48.27L73.5 49.04L73.45 49.8L73.39 50.56L73.32 51.32L73.22 52.06L73.11 52.81L72.98 53.54L72.84 54.27L72.68 54.99L72.5 55.71L72.31 56.41L72.1 57.12L71.88 57.81L71.64 58.49L71.39 59.17L71.13 59.84L70.85 60.5L70.55 61.15L70.25 61.79L69.93 62.43L69.59 63.05L69.24 63.67L68.88 64.27L68.51 64.86L68.12 65.45L67.73 66.02L67.32 66.59L66.9 67.14L66.46 67.68L66.02 68.21L65.56 68.73L65.1 69.24L64.62 69.74L64.13 70.22L63.63 70.69L63.12 71.15L62.61 71.6L62.08 72.03L61.54 72.45L60.99 72.86L60.77 82.65L60.76 82.83L60.75 83L60.73 83.18L60.7 83.35L60.67 83.52L60.63 83.69L60.59 83.85L60.54 84.01L60.48 84.17L60.42 84.33L60.35 84.48L60.28 84.63L60.2 84.77L60.12 84.92L60.03 85.05L59.94 85.19L59.85 85.32L59.75 85.45L59.64 85.57L59.53 85.68L59.42 85.8L59.3 85.91L59.18 86.01L59.06 86.11L58.93 86.2L58.8 86.29L58.67 86.37L58.53 86.45L58.39 86.52L58.24 86.58L58.1 86.64L57.95 86.7L57.8 86.74L57.65 86.78L57.49 86.82L57.33 86.85L57.17 86.87L57.01 86.88L56.85 86.89L56.68 86.89L32.76 86.34L32.6 86.33L32.43 86.32L32.27 86.3L32.11 86.27L31.96 86.24L31.8 86.19L31.65 86.15L31.5 86.09L31.36 86.03L31.22 85.97L31.08 85.89L30.94 85.82L30.8 85.73L30.67 85.65L30.55 85.55L30.42 85.45L30.3 85.35L30.19 85.24L30.08 85.13L29.97 85.01L29.87 84.89L29.77 84.76L29.67 84.63L29.58 84.5L29.5 84.36L29.42 84.21L29.34 84.07L29.27 83.92L29.21 83.77L29.15 83.61L29.09 83.45L29.04 83.29L29 83.13L28.96 82.96L28.93 82.79L28.91 82.62L28.89 82.45L28.88 82.27L28.87 82.1L28.87 81.92L29.09 72.13L28.57 71.7L28.05 71.25L27.54 70.8L27.05 70.33L26.56 69.84L26.08 69.35L25.62 68.85L25.16 68.33L24.72 67.8L24.29 67.26L23.87 66.71L23.46 66.15L23.07 65.58L22.68 65L22.31 64.4L21.95 63.8L21.61 63.19L21.27 62.57L20.96 61.94L20.65 61.3L20.36 60.65L20.08 60L19.82 59.33L19.57 58.66L19.33 57.98L19.11 57.29L18.91 56.6L18.72 55.9L18.54 55.19L18.38 54.47L18.24 53.75L18.11 53.02L18 52.28L17.91 51.54L17.83 50.8L17.77 50.05L17.73 49.29L17.7 48.53L17.69 47.76L17.7 46.99L17.75 45.74L17.85 44.51L17.99 43.28L18.18 42.08L18.41 40.89L18.68 39.72L18.99 38.57L19.34 37.44L19.73 36.33L20.16 35.24L20.63 34.17L21.13 33.13L21.67 32.11L22.25 31.11L22.85 30.14L23.49 29.2L24.17 28.29L24.87 27.41L25.6 26.56L26.37 25.73L27.16 24.94L27.97 24.19L28.82 23.47L29.69 22.78L30.58 22.13L31.5 21.51L32.44 20.93L33.4 20.4L34.38 19.9L35.39 19.44L36.41 19.02L37.45 18.65L38.5 18.32L39.58 18.03L40.67 17.79L41.77 17.6L42.89 17.45L44.01 17.35L45.15 17.3L46.31 17.3L47.46 17.36L48.59 17.46L49.72 17.61L50.82 17.8L51.92 18.05L52.99 18.34L54.05 18.67L55.09 19.05L56.11 19.47L57.12 19.93L58.1 20.44L59.06 20.98L59.99 21.56L60.9 22.18L60.9 22.18L61.79 22.84Z" id="k2mxvpjNnr"></path><path d="M76.38 58.36L86.33 61.94L86.9 62.2L87.38 62.55L87.78 62.96L88.07 63.41L88.25 63.89L88.31 64.38L88.22 64.85L87.99 65.27L87.65 65.61L87.21 65.87L86.69 66.03L86.13 66.1L85.53 66.05L84.93 65.9L74.99 62.32L74.42 62.05L73.94 61.71L73.54 61.3L73.24 60.84L73.06 60.36L73.01 59.88L73.1 59.41L73.33 58.99L73.67 58.65L74.11 58.39L74.63 58.22L75.19 58.16L75.78 58.2L76.38 58.36Z" id="b1zrUwgTvp"></path><path d="M88.78 42.96L89.3 43.2L89.74 43.52L90.07 43.91L90.3 44.34L90.38 44.81L90.32 45.29L90.12 45.73L89.8 46.13L89.37 46.46L88.87 46.72L88.3 46.89L87.68 46.96L77.11 47.14L76.49 47.1L75.91 46.95L75.4 46.7L74.96 46.38L74.62 46L74.4 45.56L74.31 45.09L74.38 44.62L74.58 44.18L74.9 43.78L75.32 43.45L75.83 43.18L76.4 43.01L77.01 42.95L87.58 42.76L88.2 42.81L88.78 42.96Z" id="mSbT64keR"></path><path d="M83.36 22.32L83.77 22.59L84.08 22.95L84.26 23.4L84.31 23.88L84.23 24.38L84.03 24.88L83.72 25.36L83.31 25.79L82.81 26.16L73.73 31.58L73.17 31.85L72.6 32.01L72.03 32.06L71.49 32L71 31.83L70.6 31.56L70.29 31.2L70.11 30.76L70.06 30.27L70.14 29.77L70.34 29.27L70.65 28.79L71.06 28.36L71.56 27.99L80.63 22.57L81.19 22.3L81.77 22.14L82.34 22.1L82.88 22.16L83.36 22.32Z" id="a13a1DUjK3"></path><path d="M69.98 7.23L70.34 7.55L70.59 7.97L70.74 8.46L70.77 9L70.7 9.56L70.52 10.13L70.23 10.67L64.4 19.5L64.02 19.98L63.56 20.37L63.07 20.66L62.56 20.84L62.05 20.91L61.57 20.84L61.13 20.65L60.78 20.33L60.53 19.91L60.38 19.42L60.34 18.88L60.41 18.32L60.59 17.75L60.89 17.21L66.71 8.38L67.1 7.9L67.55 7.51L68.04 7.22L68.55 7.04L69.06 6.98L69.55 7.04L69.98 7.23Z" id="a26EO6sSho"></path><path d="M47.82 0.29L48.21 0.62L48.53 1.05L48.78 1.56L48.94 2.14L48.99 2.75L48.91 13.33L48.84 13.94L48.68 14.52L48.42 15.03L48.09 15.46L47.7 15.79L47.26 16L46.78 16.07L46.31 16L45.87 15.78L45.49 15.45L45.16 15.02L44.91 14.51L44.76 13.94L44.71 13.32L44.79 2.74L44.85 2.13L45.02 1.55L45.27 1.04L45.6 0.61L46 0.28L46.44 0.07L46.91 0L47.38 0.08L47.82 0.29Z" id="cIaLe8luR"></path><path d="M17.03 58.45L17.46 58.72L17.8 59.08L18.01 59.5L18.09 59.98L18.02 60.46L17.82 60.93L17.51 61.37L17.1 61.76L16.6 62.09L16.03 62.33L5.94 65.5L5.34 65.63L4.74 65.64L4.18 65.56L3.67 65.37L3.23 65.1L2.9 64.75L2.68 64.32L2.61 63.85L2.68 63.37L2.87 62.9L3.18 62.45L3.59 62.06L4.09 61.74L4.66 61.5L14.75 58.33L15.36 58.2L15.95 58.18L16.52 58.27L17.03 58.45Z" id="d1el7fNN1"></path><path d="M14.47 42.96L14.99 43.2L15.42 43.52L15.76 43.91L15.98 44.34L16.07 44.81L16.01 45.29L15.8 45.73L15.48 46.13L15.06 46.46L14.56 46.72L13.99 46.89L13.37 46.96L2.8 47.14L2.18 47.1L1.6 46.95L1.08 46.7L0.65 46.38L0.31 46L0.09 45.56L0 45.09L0.06 44.62L0.27 44.18L0.59 43.78L1.01 43.45L1.51 43.18L2.08 43.01L2.7 42.95L13.27 42.76L13.89 42.81L14.47 42.96Z" id="bSkspJPnZ"></path><path d="M10.44 20.26L10.97 20.53L11.45 20.91L19.15 28.16L19.56 28.63L19.87 29.14L20.07 29.68L20.16 30.21L20.13 30.72L19.99 31.19L19.72 31.59L19.34 31.88L18.89 32.06L18.39 32.12L17.85 32.06L17.3 31.9L16.78 31.62L16.29 31.24L8.59 23.99L8.18 23.52L7.87 23.01L7.67 22.47L7.58 21.94L7.61 21.43L7.76 20.96L8.02 20.57L8.4 20.27L8.85 20.1L9.36 20.04L9.89 20.09L10.44 20.26Z" id="h1h5bZarRw"></path><path d="M25.69 5.92L26.14 6.27L26.53 6.72L26.85 7.25L31.42 16.79L31.63 17.37L31.74 17.96L31.73 18.53L31.62 19.06L31.41 19.53L31.11 19.91L30.72 20.19L30.26 20.33L29.77 20.33L29.28 20.2L28.8 19.96L28.35 19.61L27.96 19.16L27.64 18.63L23.07 9.09L22.86 8.51L22.76 7.92L22.76 7.35L22.87 6.82L23.08 6.35L23.38 5.97L23.78 5.69L24.23 5.55L24.72 5.55L25.21 5.68L25.69 5.92Z" id="a1ElR4pmlk"></path></defs><g><g><g><g><use xlink:href="#k2mxvpjNnr" opacity="1" fill="#f4a71d" fill-opacity="1"></use><g><use xlink:href="#k2mxvpjNnr" opacity="1" fill-opacity="0" stroke="#000000" stroke-width="1" stroke-opacity="0"></use></g></g><g><use xlink:href="#b1zrUwgTvp" opacity="1" fill="#f4a71d" fill-opacity="1"></use><g><use xlink:href="#b1zrUwgTvp" opacity="1" fill-opacity="0" stroke="#000000" stroke-width="1" stroke-opacity="0"></use></g></g><g><use xlink:href="#mSbT64keR" opacity="1" fill="#f4a71d" fill-opacity="1"></use><g><use xlink:href="#mSbT64keR" opacity="1" fill-opacity="0" stroke="#000000" stroke-width="1" stroke-opacity="0"></use></g></g><g><use xlink:href="#a13a1DUjK3" opacity="1" fill="#f4a71d" fill-opacity="1"></use><g><use xlink:href="#a13a1DUjK3" opacity="1" fill-opacity="0" stroke="#000000" stroke-width="1" stroke-opacity="0"></use></g></g><g><use xlink:href="#a26EO6sSho" opacity="1" fill="#f4a71d" fill-opacity="1"></use><g><use xlink:href="#a26EO6sSho" opacity="1" fill-opacity="0" stroke="#000000" stroke-width="1" stroke-opacity="0"></use></g></g><g><use xlink:href="#cIaLe8luR" opacity="1" fill="#f4a71d" fill-opacity="1"></use><g><use xlink:href="#cIaLe8luR" opacity="1" fill-opacity="0" stroke="#000000" stroke-width="1" stroke-opacity="0"></use></g></g><g><use xlink:href="#d1el7fNN1" opacity="1" fill="#f4a71d" fill-opacity="1"></use><g><use xlink:href="#d1el7fNN1" opacity="1" fill-opacity="0" stroke="#000000" stroke-width="1" stroke-opacity="0"></use></g></g><g><use xlink:href="#bSkspJPnZ" opacity="1" fill="#f4a71d" fill-opacity="1"></use><g><use xlink:href="#bSkspJPnZ" opacity="1" fill-opacity="0" stroke="#000000" stroke-width="1" stroke-opacity="0"></use></g></g><g><use xlink:href="#h1h5bZarRw" opacity="1" fill="#f4a71d" fill-opacity="1"></use><g><use xlink:href="#h1h5bZarRw" opacity="1" fill-opacity="0" stroke="#000000" stroke-width="1" stroke-opacity="0"></use></g></g><g><use xlink:href="#a1ElR4pmlk" opacity="1" fill="#f4a71d" fill-opacity="1"></use><g><use xlink:href="#a1ElR4pmlk" opacity="1" fill-opacity="0" stroke="#000000" stroke-width="1" stroke-opacity="0"></use></g></g></g></g></g></svg>