<?xml version="1.0" encoding="UTF-8" standalone="no"?>
<!DOCTYPE svg PUBLIC "-//W3C//DTD SVG 1.1//EN" "http://www.w3.org/Graphics/SVG/1.1/DTD/svg11.dtd">
<svg version="1.1" xmlns="http://www.w3.org/2000/svg" xmlns:xlink="http://www.w3.org/1999/xlink" preserveAspectRatio="xMidYMid meet" viewBox="0 0 62.52 77.82" width="62.52" height="77.82"><defs><path d="M32.86 0.06L33.65 0.14L34.43 0.24L35.19 0.38L35.95 0.54L36.7 0.73L37.43 0.95L38.15 1.19L38.86 1.46L39.55 1.75L40.23 2.07L40.9 2.41L41.55 2.78L42.18 3.17L42.79 3.58L43.39 4.01L43.97 4.46L44.53 4.94L45.07 5.43L45.59 5.94L46.09 6.47L46.57 7.02L47.02 7.59L47.46 8.17L47.87 8.77L48.25 9.39L48.61 10.02L48.95 10.66L49.26 11.32L49.54 11.99L49.8 12.67L50.03 13.37L50.23 14.08L50.4 14.8L50.54 15.52L50.65 16.26L50.73 17.01L50.78 17.76L50.79 18.53L50.79 25.94L54.7 25.94L55.02 25.94L55.34 25.96L55.65 25.99L55.97 26.04L56.27 26.09L56.57 26.15L56.87 26.23L57.17 26.32L57.45 26.42L57.74 26.52L58.01 26.64L58.29 26.77L58.55 26.91L58.81 27.05L59.06 27.21L59.31 27.37L59.55 27.55L59.78 27.73L60 27.92L60.22 28.12L60.43 28.32L60.63 28.53L60.82 28.75L61 28.98L61.18 29.21L61.34 29.45L61.5 29.7L61.64 29.95L61.78 30.21L61.9 30.47L62.01 30.74L62.12 31.01L62.21 31.29L62.29 31.57L62.36 31.86L62.41 32.15L62.46 32.45L62.49 32.74L62.51 33.05L62.52 33.35L62.52 70.4L62.51 70.71L62.49 71.01L62.46 71.31L62.41 71.6L62.36 71.89L62.29 72.18L62.21 72.46L62.12 72.74L62.01 73.01L61.9 73.28L61.78 73.54L61.64 73.8L61.5 74.05L61.34 74.3L61.18 74.54L61 74.77L60.82 75L60.63 75.22L60.43 75.43L60.22 75.64L60 75.84L59.78 76.03L59.55 76.21L59.31 76.38L59.06 76.55L58.81 76.7L58.55 76.85L58.29 76.98L58.01 77.11L57.74 77.23L57.45 77.34L57.17 77.44L56.87 77.52L56.57 77.6L56.27 77.66L55.97 77.72L55.65 77.76L55.34 77.79L55.02 77.81L54.7 77.82L7.81 77.82L7.49 77.81L7.18 77.79L6.86 77.76L6.55 77.72L6.24 77.66L5.94 77.6L5.64 77.52L5.35 77.44L5.06 77.34L4.78 77.23L4.5 77.11L4.23 76.98L3.97 76.85L3.71 76.7L3.45 76.55L3.21 76.38L2.97 76.21L2.74 76.03L2.51 75.84L2.3 75.64L2.09 75.43L1.89 75.22L1.7 75L1.51 74.77L1.34 74.54L1.18 74.3L1.02 74.05L0.88 73.8L0.74 73.54L0.62 73.28L0.5 73.01L0.4 72.74L0.31 72.46L0.23 72.18L0.16 71.89L0.1 71.6L0.06 71.31L0.03 71.01L0.01 70.71L0 70.4L0 33.35L0.01 33.05L0.03 32.74L0.06 32.45L0.1 32.15L0.16 31.86L0.23 31.57L0.31 31.29L0.4 31.01L0.5 30.74L0.62 30.47L0.74 30.21L0.88 29.95L1.02 29.7L1.18 29.45L1.34 29.21L1.51 28.98L1.7 28.75L1.89 28.53L2.09 28.32L2.3 28.12L2.51 27.92L2.74 27.73L2.97 27.55L3.21 27.37L3.45 27.21L3.71 27.05L3.97 26.91L4.23 26.77L4.5 26.64L4.78 26.52L5.06 26.42L5.35 26.32L5.64 26.23L5.94 26.15L6.24 26.09L6.55 26.04L6.86 25.99L7.18 25.96L7.49 25.94L7.81 25.94L11.72 25.94L11.72 18.53L11.74 17.76L11.79 17.01L11.87 16.26L11.98 15.52L12.12 14.8L12.29 14.08L12.49 13.37L12.72 12.67L12.97 11.99L13.26 11.32L13.57 10.66L13.9 10.02L14.26 9.39L14.65 8.77L15.06 8.17L15.49 7.59L15.95 7.02L16.43 6.47L16.93 5.94L17.45 5.43L17.99 4.94L18.55 4.46L19.13 4.01L19.72 3.58L20.34 3.17L20.97 2.78L21.62 2.41L22.28 2.07L22.96 1.75L23.66 1.46L24.36 1.19L25.09 0.95L25.82 0.73L26.57 0.54L27.32 0.38L28.09 0.24L28.87 0.14L29.66 0.06L30.45 0.02L31.26 0L32.06 0.02L32.86 0.06ZM28.54 44.93L27.32 45.48L26.23 46.21L25.29 47.11L24.51 48.14L23.93 49.3L23.57 50.55L23.44 51.88L23.57 53.2L23.93 54.46L24.51 55.61L25.29 56.64L26.23 57.54L27.32 58.27L28.54 58.82L29.86 59.17L31.26 59.29L32.66 59.17L33.98 58.82L35.19 58.27L36.29 57.54L37.23 56.64L38 55.61L38.58 54.46L38.95 53.2L39.07 51.88L38.95 50.55L38.58 49.3L38 48.14L37.23 47.11L36.29 46.21L35.19 45.48L33.98 44.93L32.66 44.59L31.26 44.47L29.86 44.59L28.54 44.93ZM28.66 7.31L27.43 7.63L26.26 8.06L25.15 8.61L24.11 9.26L23.15 10L22.27 10.83L21.49 11.75L20.8 12.73L20.23 13.79L19.76 14.9L19.43 16.07L19.22 17.28L19.15 18.53L19.15 25.94L43.37 25.94L43.37 18.53L43.3 17.28L43.09 16.07L42.75 14.9L42.29 13.79L41.72 12.73L41.03 11.75L40.25 10.83L39.37 10L38.41 9.26L37.37 8.61L36.26 8.06L35.08 7.63L33.85 7.31L32.58 7.11L31.26 7.04L29.94 7.11L28.66 7.31Z" id="aOxXzXu5u"></path></defs><g><g><g><use xlink:href="#aOxXzXu5u" opacity="1" fill="#388e3c" fill-opacity="1"></use><g><use xlink:href="#aOxXzXu5u" opacity="1" fill-opacity="0" stroke="#000000" stroke-width="1" stroke-opacity="0"></use></g></g></g></g></svg>