<?xml version="1.0" encoding="UTF-8" standalone="no"?>
<!DOCTYPE svg PUBLIC "-//W3C//DTD SVG 1.1//EN" "http://www.w3.org/Graphics/SVG/1.1/DTD/svg11.dtd">
<svg version="1.1" xmlns="http://www.w3.org/2000/svg" xmlns:xlink="http://www.w3.org/1999/xlink" preserveAspectRatio="xMidYMid meet" viewBox="0 0 89 104.49" width="89" height="104.49"><defs><path d="M-14.23 -6.11L9.77 -6.11L9.77 17.89L-14.23 17.89L-14.23 -6.11Z" id="beJMVfHUE"></path><path d="M44.66 0L44.74 0.01L44.82 0.01L44.9 0.02L44.97 0.03L45.05 0.04L45.12 0.06L45.19 0.07L45.26 0.09L45.33 0.1L45.4 0.12L45.46 0.14L45.53 0.16L45.59 0.18L45.65 0.2L45.71 0.23L45.77 0.25L45.83 0.28L45.89 0.3L45.94 0.33L46 0.35L46.05 0.38L46.1 0.41L46.15 0.44L46.2 0.47L46.25 0.49L46.3 0.52L46.35 0.55L46.39 0.58L46.44 0.61L46.48 0.64L46.52 0.67L46.57 0.7L46.61 0.72L46.64 0.75L46.68 0.78L46.72 0.81L46.76 0.83L46.79 0.86L47.14 1.11L47.52 1.38L47.93 1.66L48.38 1.95L48.85 2.26L49.35 2.57L49.89 2.9L50.45 3.23L51.05 3.57L51.67 3.92L52.33 4.27L53.02 4.62L53.74 4.98L54.49 5.34L55.27 5.7L56.08 6.06L56.92 6.42L57.8 6.78L58.7 7.13L59.64 7.48L60.61 7.82L61.6 8.15L62.63 8.48L63.69 8.79L64.78 9.1L65.91 9.39L67.06 9.67L68.24 9.94L69.46 10.19L70.71 10.43L71.99 10.65L73.3 10.85L74.64 11.03L76.01 11.19L77.41 11.33L78.85 11.44L80.31 11.54L81.81 11.6L83.34 11.64L84.9 11.66L85.56 11.66L85.69 11.65L85.82 11.66L85.96 11.67L86.09 11.68L86.22 11.7L86.34 11.73L86.47 11.76L86.59 11.79L86.71 11.83L86.83 11.88L86.95 11.93L87.07 11.98L87.18 12.04L87.29 12.1L87.4 12.17L87.5 12.24L87.61 12.31L87.71 12.39L87.8 12.47L87.89 12.56L87.99 12.65L88.07 12.74L88.16 12.84L88.24 12.94L88.31 13.04L88.38 13.14L88.45 13.25L88.52 13.36L88.58 13.48L88.63 13.59L88.69 13.71L88.73 13.83L88.78 13.95L88.82 14.08L88.85 14.21L88.88 14.33L88.9 14.46L88.92 14.6L88.94 14.73L88.95 14.86L88.96 15.16L88.97 15.65L88.99 16.35L89 17.23L89 18.29L88.98 19.52L88.94 20.91L88.88 22.46L88.8 24.15L88.67 25.98L88.51 27.94L88.31 30.03L88.06 32.22L87.76 34.52L87.4 36.92L86.98 39.4L86.5 41.96L85.94 44.6L85.31 47.29L84.6 50.05L83.81 52.84L82.93 55.68L81.95 58.55L80.88 61.43L79.7 64.34L78.42 67.24L77.03 70.14L75.51 73.03L73.88 75.9L72.12 78.75L70.24 81.55L68.21 84.31L66.05 87.02L63.74 89.66L61.29 92.24L58.68 94.73L55.91 97.14L52.99 99.46L49.89 101.67L46.62 103.77L46.26 103.99L46.22 104.02L46.18 104.04L46.14 104.07L46.09 104.09L46.05 104.11L46.01 104.13L45.97 104.15L45.93 104.17L45.88 104.19L45.84 104.21L45.8 104.23L45.76 104.25L45.71 104.27L45.67 104.28L45.63 104.3L45.58 104.31L45.54 104.33L45.49 104.34L45.45 104.35L45.41 104.37L45.36 104.38L45.32 104.39L45.27 104.4L45.23 104.41L45.18 104.42L45.14 104.43L45.09 104.44L45.05 104.45L45 104.45L44.96 104.46L44.91 104.47L44.87 104.47L44.82 104.48L44.77 104.48L44.73 104.48L44.68 104.49L44.64 104.49L44.59 104.49L44.55 104.49L44.5 104.49L44.45 104.49L44.41 104.49L44.36 104.49L44.32 104.49L44.27 104.48L44.23 104.48L44.18 104.48L44.13 104.47L44.09 104.47L44.04 104.46L44 104.45L43.95 104.45L43.91 104.44L43.86 104.43L43.82 104.42L43.77 104.41L43.73 104.4L43.68 104.39L43.64 104.38L43.59 104.37L43.55 104.35L43.51 104.34L43.46 104.33L43.42 104.31L43.37 104.3L43.33 104.28L43.29 104.27L43.24 104.25L43.2 104.23L43.16 104.21L43.12 104.19L43.07 104.17L43.03 104.15L42.99 104.13L42.95 104.11L42.91 104.09L42.86 104.07L42.82 104.04L42.78 104.02L42.74 104L42.37 103.77L39.1 101.67L36.01 99.46L33.08 97.14L30.31 94.73L27.71 92.23L25.25 89.66L22.95 87.01L20.78 84.31L18.76 81.55L16.87 78.74L15.11 75.9L13.48 73.03L11.97 70.14L10.58 67.24L9.29 64.33L8.12 61.43L7.04 58.55L6.07 55.68L5.19 52.84L4.39 50.04L3.68 47.29L3.05 44.6L2.5 41.96L2.02 39.4L1.6 36.92L1.24 34.52L0.94 32.22L0.69 30.03L0.48 27.94L0.32 25.98L0.2 24.15L0.11 22.46L0.05 20.91L0.02 19.52L0 18.29L0 17.23L0.01 16.35L0.02 15.65L0.04 15.16L0.05 14.86L0.06 14.73L0.07 14.6L0.09 14.47L0.12 14.34L0.15 14.21L0.18 14.08L0.22 13.96L0.26 13.84L0.31 13.72L0.36 13.6L0.42 13.49L0.48 13.38L0.54 13.27L0.61 13.16L0.68 13.06L0.76 12.96L0.83 12.86L0.92 12.77L1 12.67L1.09 12.59L1.18 12.5L1.28 12.42L1.38 12.34L1.48 12.27L1.58 12.2L1.69 12.13L1.8 12.07L1.91 12.01L2.03 11.95L2.14 11.9L2.26 11.86L2.38 11.82L2.51 11.78L2.63 11.75L2.76 11.72L2.89 11.7L3.02 11.68L3.15 11.67L3.28 11.66L3.42 11.65L3.44 11.65L4.1 11.66L5.66 11.64L7.19 11.6L8.69 11.53L10.15 11.44L11.59 11.33L12.99 11.19L14.36 11.03L15.7 10.85L17.01 10.65L18.29 10.43L19.54 10.19L20.76 9.94L21.94 9.67L23.09 9.39L24.22 9.1L25.31 8.79L26.37 8.48L27.4 8.15L28.4 7.82L29.36 7.48L30.3 7.13L31.2 6.78L32.08 6.42L32.92 6.06L33.73 5.7L34.51 5.34L35.26 4.98L35.98 4.62L36.67 4.27L37.33 3.92L37.95 3.57L38.55 3.23L39.11 2.89L39.65 2.57L40.15 2.25L40.62 1.95L41.07 1.66L41.48 1.38L41.86 1.11L42.21 0.86L42.24 0.83L42.28 0.81L42.32 0.78L42.35 0.75L42.39 0.72L42.43 0.69L42.48 0.67L42.52 0.64L42.56 0.61L42.61 0.58L42.65 0.55L42.7 0.52L42.75 0.49L42.79 0.46L42.84 0.44L42.89 0.41L42.95 0.38L43 0.35L43.05 0.33L43.11 0.3L43.17 0.28L43.23 0.25L43.28 0.23L43.35 0.2L43.41 0.18L43.47 0.16L43.53 0.14L43.6 0.12L43.67 0.1L43.74 0.09L43.81 0.07L43.88 0.06L43.95 0.04L44.02 0.03L44.1 0.02L44.18 0.01L44.25 0.01L44.33 0L44.42 0L44.5 0L44.58 0L44.66 0ZM43.58 8.06L43.08 8.37L42.55 8.69L42 9.01L41.42 9.34L40.82 9.68L40.19 10.02L39.54 10.36L38.86 10.71L38.16 11.05L37.43 11.4L36.68 11.75L35.9 12.1L35.09 12.45L34.26 12.8L33.41 13.14L32.53 13.48L31.62 13.81L30.69 14.14L29.73 14.46L28.75 14.78L27.74 15.09L26.71 15.39L25.65 15.68L24.57 15.96L23.46 16.23L22.33 16.48L21.17 16.73L19.98 16.96L18.78 17.18L17.54 17.38L16.28 17.57L15 17.74L13.69 17.89L12.35 18.02L11 18.14L9.61 18.23L8.2 18.31L6.77 18.36L6.79 19.34L6.82 20.43L6.88 21.64L6.95 22.95L7.04 24.36L7.16 25.86L7.3 27.46L7.47 29.14L7.68 30.9L7.92 32.74L8.2 34.65L8.52 36.62L8.88 38.65L9.29 40.73L9.74 42.87L10.25 45.05L10.81 47.26L11.42 49.51L12.1 51.79L12.83 54.09L13.63 56.41L14.5 58.75L15.43 61.09L16.44 63.43L17.52 65.78L18.68 68.11L19.92 70.44L21.24 72.74L22.65 75.02L24.14 77.28L25.73 79.5L27.41 81.68L29.18 83.82L31.05 85.91L33.03 87.95L35.1 89.93L37.29 91.85L39.58 93.69L41.98 95.46L44.5 97.16L47.02 95.46L49.43 93.69L51.72 91.84L53.91 89.92L55.99 87.94L57.97 85.9L59.84 83.81L61.62 81.67L63.3 79.48L64.88 77.26L66.38 75L67.78 72.72L69.11 70.41L70.35 68.09L71.51 65.76L72.59 63.41L73.6 61.07L74.53 58.73L75.4 56.39L76.2 54.07L76.93 51.77L77.6 49.49L78.22 47.24L78.78 45.03L79.28 42.85L79.73 40.72L80.14 38.64L80.5 36.61L80.82 34.64L81.09 32.73L81.33 30.9L81.54 29.14L81.71 27.45L81.85 25.86L81.97 24.35L82.06 22.94L82.13 21.63L82.18 20.43L82.21 19.34L82.23 18.36L80.8 18.31L79.39 18.23L78 18.14L76.65 18.02L75.31 17.89L74 17.74L72.72 17.57L71.46 17.38L70.22 17.18L69.02 16.96L67.83 16.73L66.67 16.49L65.54 16.23L64.43 15.96L63.35 15.68L62.29 15.39L61.26 15.09L60.25 14.78L59.27 14.46L58.31 14.14L57.38 13.81L56.47 13.48L55.59 13.14L54.74 12.8L53.91 12.45L53.1 12.1L52.32 11.75L51.57 11.4L50.84 11.05L50.14 10.71L49.46 10.36L48.81 10.02L48.18 9.68L47.58 9.34L47 9.01L46.45 8.69L45.92 8.37L45.42 8.06L44.95 7.76L44.5 7.46L44.05 7.76L43.58 8.06Z" id="adWnnyrhZ"></path></defs><g><g><path></path><g><use xlink:href="#beJMVfHUE" opacity="1" fill="#000000" fill-opacity="0"></use><g><use xlink:href="#beJMVfHUE" opacity="1" fill-opacity="0" stroke="#000000" stroke-width="1" stroke-opacity="0"></use></g></g><g><use xlink:href="#adWnnyrhZ" opacity="1" fill="#d48c15" fill-opacity="1"></use><g><use xlink:href="#adWnnyrhZ" opacity="1" fill-opacity="0" stroke="#000000" stroke-width="1" stroke-opacity="0"></use></g></g></g></g></svg>