<?xml version="1.0" encoding="UTF-8" standalone="no"?>
<!DOCTYPE svg PUBLIC "-//W3C//DTD SVG 1.1//EN" "http://www.w3.org/Graphics/SVG/1.1/DTD/svg11.dtd">
<svg version="1.1" xmlns="http://www.w3.org/2000/svg" xmlns:xlink="http://www.w3.org/1999/xlink" preserveAspectRatio="xMidYMid meet" viewBox="0 0 62.52 77.82" width="62.52" height="77.82"><defs><path d="M33.62 0.06L34.41 0.14L35.19 0.24L35.95 0.38L36.71 0.54L37.46 0.73L38.19 0.95L38.91 1.19L39.62 1.46L40.32 1.75L40.99 2.07L41.66 2.41L42.31 2.78L42.94 3.17L43.55 3.58L44.15 4.01L44.73 4.46L45.29 4.94L45.83 5.43L46.35 5.94L46.85 6.47L47.33 7.02L47.78 7.59L48.22 8.17L48.63 8.77L49.01 9.39L49.37 10.02L49.71 10.66L50.02 11.32L50.3 11.99L50.56 12.67L50.79 13.37L50.99 14.08L51.16 14.8L51.3 15.52L51.41 16.26L51.49 17.01L51.54 17.76L51.56 18.53L51.56 25.94L55.46 25.94L55.78 25.94L56.1 25.96L56.42 25.99L56.73 26.04L57.03 26.09L57.34 26.15L57.63 26.23L57.93 26.32L58.21 26.42L58.5 26.52L58.77 26.64L59.05 26.77L59.31 26.91L59.57 27.05L59.82 27.21L60.07 27.37L60.31 27.55L60.54 27.73L60.77 27.92L60.98 28.12L61.19 28.32L61.39 28.53L61.58 28.75L61.76 28.98L61.94 29.21L62.1 29.45L62.26 29.7L62.4 29.95L62.54 30.21L62.66 30.47L62.77 30.74L62.88 31.01L62.97 31.29L63.05 31.57L63.12 31.86L63.17 32.15L63.22 32.45L63.25 32.74L63.27 33.05L63.28 33.35L63.28 70.4L63.27 70.71L63.25 71.01L63.22 71.31L63.17 71.6L63.12 71.89L63.05 72.18L62.97 72.46L62.88 72.74L62.77 73.01L62.66 73.28L62.54 73.54L62.4 73.8L62.26 74.05L62.1 74.3L61.94 74.54L61.76 74.77L61.58 75L61.39 75.22L61.19 75.43L60.98 75.64L60.77 75.84L60.54 76.03L60.31 76.21L60.07 76.38L59.82 76.55L59.57 76.7L59.31 76.85L59.05 76.98L58.77 77.11L58.5 77.23L58.21 77.34L57.93 77.44L57.63 77.52L57.34 77.6L57.03 77.66L56.73 77.72L56.42 77.76L56.1 77.79L55.78 77.81L55.46 77.82L8.58 77.82L8.25 77.81L7.94 77.79L7.62 77.76L7.31 77.72L7.01 77.66L6.7 77.6L6.41 77.52L6.11 77.44L5.82 77.34L5.54 77.23L5.26 77.11L4.99 76.98L4.73 76.85L4.47 76.7L4.21 76.55L3.97 76.38L3.73 76.21L3.5 76.03L3.27 75.84L3.06 75.64L2.85 75.43L2.65 75.22L2.46 75L2.27 74.77L2.1 74.54L1.94 74.3L1.78 74.05L1.64 73.8L1.5 73.54L1.38 73.28L1.26 73.01L1.16 72.74L1.07 72.46L0.99 72.18L0.92 71.89L0.86 71.6L0.82 71.31L0.79 71.01L0.77 70.71L0.76 70.4L0.76 33.35L0.77 33.05L0.79 32.74L0.82 32.45L0.86 32.15L0.92 31.86L0.99 31.57L1.07 31.29L1.16 31.01L1.26 30.74L1.38 30.47L1.5 30.21L1.64 29.95L1.78 29.7L1.94 29.45L2.1 29.21L2.27 28.98L2.46 28.75L2.65 28.53L2.85 28.32L3.06 28.12L3.27 27.92L3.5 27.73L3.73 27.55L3.97 27.37L4.21 27.21L4.47 27.05L4.73 26.91L4.99 26.77L5.26 26.64L5.54 26.52L5.82 26.42L6.11 26.32L6.41 26.23L6.7 26.15L7.01 26.09L7.31 26.04L7.62 25.99L7.94 25.96L8.25 25.94L8.58 25.94L12.29 25.94L12.31 26.14L44.13 25.94L44.13 18.53L44.08 17.48L43.94 16.46L43.7 15.48L43.37 14.52L42.96 13.61L42.48 12.73L41.91 11.91L41.28 11.13L40.58 10.41L39.82 9.74L39 9.14L38.13 8.61L37.21 8.15L36.24 7.76L35.24 7.45L34.19 7.23L33.12 7.09L32.02 7.04L31.05 7.08L30.11 7.18L29.19 7.36L28.29 7.6L27.43 7.9L26.6 8.26L25.8 8.67L25.04 9.14L24.32 9.67L23.64 10.24L23.01 10.85L22.43 11.51L21.91 12.21L21.43 12.95L21.02 13.72L20.67 14.52L20.38 15.36L20.15 16.21L20.05 16.33L19.82 16.41L19.47 16.48L19.02 16.53L18.49 16.56L17.9 16.58L17.25 16.59L16.57 16.6L15.88 16.6L15.18 16.61L14.51 16.61L13.87 16.63L13.29 16.65L12.77 16.69L12.58 16.71L12.63 16.26L12.74 15.52L12.88 14.8L13.05 14.08L13.25 13.37L13.48 12.67L13.74 11.99L14.02 11.32L14.33 10.66L14.66 10.02L15.03 9.39L15.41 8.77L15.82 8.17L16.25 7.59L16.71 7.02L17.19 6.47L17.69 5.94L18.21 5.43L18.75 4.94L19.31 4.46L19.89 4.01L20.48 3.58L21.1 3.17L21.73 2.78L22.38 2.41L23.04 2.07L23.72 1.75L24.42 1.46L25.12 1.19L25.85 0.95L26.58 0.73L27.33 0.54L28.08 0.38L28.85 0.24L29.63 0.14L30.42 0.06L31.21 0.02L32.02 0L32.82 0.02L33.62 0.06ZM29.3 44.93L28.08 45.48L26.99 46.21L26.05 47.11L25.28 48.14L24.7 49.3L24.33 50.55L24.2 51.88L24.33 53.2L24.7 54.46L25.28 55.61L26.05 56.64L26.99 57.54L28.08 58.27L29.3 58.82L30.62 59.17L32.02 59.29L33.42 59.17L34.74 58.82L35.96 58.27L37.05 57.54L37.99 56.64L38.76 55.61L39.34 54.46L39.71 53.2L39.83 51.88L39.71 50.55L39.34 49.3L38.76 48.14L37.99 47.11L37.05 46.21L35.96 45.48L34.74 44.93L33.42 44.59L32.02 44.47L30.62 44.59L29.3 44.93Z" id="h4mjqxbfuQ"></path><path d="M-14.23 -6.11L9.77 -6.11L9.77 17.89L-14.23 17.89L-14.23 -6.11Z" id="b62W1CL17m"></path></defs><g><g><g><use xlink:href="#h4mjqxbfuQ" opacity="1" fill="#d32f2f" fill-opacity="1"></use><g><use xlink:href="#h4mjqxbfuQ" opacity="1" fill-opacity="0" stroke="#000000" stroke-width="1" stroke-opacity="0"></use></g></g><path></path><g><use xlink:href="#b62W1CL17m" opacity="1" fill="#000000" fill-opacity="0"></use><g><use xlink:href="#b62W1CL17m" opacity="1" fill-opacity="0" stroke="#000000" stroke-width="1" stroke-opacity="0"></use></g></g></g></g></svg>